<mxfile host="app.diagrams.net" agent="Mozilla/5.0 (Macintosh; Intel Mac OS X 10_15_7) AppleWebKit/537.36 (KHTML, like Gecko) Chrome/133.0.0.0 Safari/537.36" version="26.0.14">
  <diagram id="C5RBs43oDa-KdzZeNtuy" name="Page-1">
    <mxGraphModel dx="1915" dy="908" grid="1" gridSize="10" guides="1" tooltips="1" connect="1" arrows="1" fold="1" page="1" pageScale="1" pageWidth="827" pageHeight="1169" math="0" shadow="0">
      <root>
        <mxCell id="WIyWlLk6GJQsqaUBKTNV-0" />
        <mxCell id="WIyWlLk6GJQsqaUBKTNV-1" parent="WIyWlLk6GJQsqaUBKTNV-0" />
        <mxCell id="bJA0hyxQSDtkD8YtruUl-0" value="" style="rounded=0;html=1;jettySize=auto;orthogonalLoop=1;fontSize=11;endArrow=block;endFill=0;endSize=8;strokeWidth=1;shadow=0;labelBackgroundColor=none;edgeStyle=orthogonalEdgeStyle;" edge="1" parent="WIyWlLk6GJQsqaUBKTNV-1" source="bJA0hyxQSDtkD8YtruUl-1">
          <mxGeometry relative="1" as="geometry">
            <mxPoint x="680" y="170" as="targetPoint" />
          </mxGeometry>
        </mxCell>
        <mxCell id="bJA0hyxQSDtkD8YtruUl-1" value="Read all project:content - project_phase needs to be complete - from CosmosDB" style="rounded=1;whiteSpace=wrap;html=1;fontSize=12;glass=0;strokeWidth=1;shadow=0;" vertex="1" parent="WIyWlLk6GJQsqaUBKTNV-1">
          <mxGeometry x="610" y="30" width="140" height="90" as="geometry" />
        </mxCell>
        <mxCell id="bJA0hyxQSDtkD8YtruUl-16" value="Already transformed into CSV?" style="rhombus;whiteSpace=wrap;html=1;shadow=0;fontFamily=Helvetica;fontSize=12;align=center;strokeWidth=1;spacing=6;spacingTop=-4;" vertex="1" parent="WIyWlLk6GJQsqaUBKTNV-1">
          <mxGeometry x="630" y="170" width="100" height="80" as="geometry" />
        </mxCell>
        <mxCell id="bJA0hyxQSDtkD8YtruUl-18" value="Yes" style="edgeStyle=orthogonalEdgeStyle;rounded=0;html=1;jettySize=auto;orthogonalLoop=1;fontSize=11;endArrow=block;endFill=0;endSize=8;strokeWidth=1;shadow=0;labelBackgroundColor=none;" edge="1" parent="WIyWlLk6GJQsqaUBKTNV-1">
          <mxGeometry y="10" relative="1" as="geometry">
            <mxPoint as="offset" />
            <mxPoint x="730" y="209.5" as="sourcePoint" />
            <mxPoint x="780" y="209.5" as="targetPoint" />
          </mxGeometry>
        </mxCell>
        <mxCell id="bJA0hyxQSDtkD8YtruUl-19" value="No" style="rounded=0;html=1;jettySize=auto;orthogonalLoop=1;fontSize=11;endArrow=block;endFill=0;endSize=8;strokeWidth=1;shadow=0;labelBackgroundColor=none;edgeStyle=orthogonalEdgeStyle;" edge="1" parent="WIyWlLk6GJQsqaUBKTNV-1">
          <mxGeometry x="0.3333" y="20" relative="1" as="geometry">
            <mxPoint as="offset" />
            <mxPoint x="679.5" y="250" as="sourcePoint" />
            <mxPoint x="679.5" y="310" as="targetPoint" />
          </mxGeometry>
        </mxCell>
        <mxCell id="bJA0hyxQSDtkD8YtruUl-20" value="XLSX to CSV Script" style="rounded=1;whiteSpace=wrap;html=1;fontSize=12;glass=0;strokeWidth=1;shadow=0;" vertex="1" parent="WIyWlLk6GJQsqaUBKTNV-1">
          <mxGeometry x="620" y="310" width="120" height="40" as="geometry" />
        </mxCell>
        <mxCell id="bJA0hyxQSDtkD8YtruUl-21" value="Successful upload?" style="rhombus;whiteSpace=wrap;html=1;shadow=0;fontFamily=Helvetica;fontSize=12;align=center;strokeWidth=1;spacing=6;spacingTop=-4;" vertex="1" parent="WIyWlLk6GJQsqaUBKTNV-1">
          <mxGeometry x="630" y="410" width="100" height="80" as="geometry" />
        </mxCell>
        <mxCell id="bJA0hyxQSDtkD8YtruUl-23" value="Yes" style="edgeStyle=orthogonalEdgeStyle;rounded=0;html=1;jettySize=auto;orthogonalLoop=1;fontSize=11;endArrow=block;endFill=0;endSize=8;strokeWidth=1;shadow=0;labelBackgroundColor=none;" edge="1" parent="WIyWlLk6GJQsqaUBKTNV-1">
          <mxGeometry y="10" relative="1" as="geometry">
            <mxPoint as="offset" />
            <mxPoint x="730" y="449.5" as="sourcePoint" />
            <mxPoint x="780" y="449.5" as="targetPoint" />
          </mxGeometry>
        </mxCell>
        <mxCell id="bJA0hyxQSDtkD8YtruUl-24" value="No" style="rounded=0;html=1;jettySize=auto;orthogonalLoop=1;fontSize=11;endArrow=block;endFill=0;endSize=8;strokeWidth=1;shadow=0;labelBackgroundColor=none;edgeStyle=orthogonalEdgeStyle;" edge="1" parent="WIyWlLk6GJQsqaUBKTNV-1">
          <mxGeometry x="0.3333" y="20" relative="1" as="geometry">
            <mxPoint as="offset" />
            <mxPoint x="679.5" y="490" as="sourcePoint" />
            <mxPoint x="679.5" y="550" as="targetPoint" />
          </mxGeometry>
        </mxCell>
        <mxCell id="bJA0hyxQSDtkD8YtruUl-25" value="upload pkType:content_status&lt;div&gt;content_status=Error&lt;/div&gt;" style="rounded=1;whiteSpace=wrap;html=1;fontSize=12;glass=0;strokeWidth=1;shadow=0;" vertex="1" parent="WIyWlLk6GJQsqaUBKTNV-1">
          <mxGeometry x="615" y="550" width="130" height="60" as="geometry" />
        </mxCell>
        <mxCell id="bJA0hyxQSDtkD8YtruUl-27" value="upload pkType:content_status&lt;div&gt;content_status=Success&lt;/div&gt;" style="rounded=1;whiteSpace=wrap;html=1;fontSize=12;glass=0;strokeWidth=1;shadow=0;" vertex="1" parent="WIyWlLk6GJQsqaUBKTNV-1">
          <mxGeometry x="780" y="420" width="140" height="60" as="geometry" />
        </mxCell>
        <mxCell id="bJA0hyxQSDtkD8YtruUl-29" value="Good to go" style="rounded=1;whiteSpace=wrap;html=1;fontSize=12;glass=0;strokeWidth=1;shadow=0;" vertex="1" parent="WIyWlLk6GJQsqaUBKTNV-1">
          <mxGeometry x="780" y="190" width="100" height="40" as="geometry" />
        </mxCell>
        <mxCell id="bJA0hyxQSDtkD8YtruUl-30" value="Read all csv&lt;div&gt;pkType: cleaning_status&lt;/div&gt;&lt;div&gt;from Cosmos&lt;/div&gt;" style="rounded=1;whiteSpace=wrap;html=1;fontSize=12;glass=0;strokeWidth=1;shadow=0;" vertex="1" parent="WIyWlLk6GJQsqaUBKTNV-1">
          <mxGeometry x="1025" y="70" width="150" height="50" as="geometry" />
        </mxCell>
        <mxCell id="bJA0hyxQSDtkD8YtruUl-31" value="" style="rounded=0;html=1;jettySize=auto;orthogonalLoop=1;fontSize=11;endArrow=block;endFill=0;endSize=8;strokeWidth=1;shadow=0;labelBackgroundColor=none;edgeStyle=orthogonalEdgeStyle;" edge="1" parent="WIyWlLk6GJQsqaUBKTNV-1">
          <mxGeometry relative="1" as="geometry">
            <mxPoint x="1099.5" y="120" as="sourcePoint" />
            <mxPoint x="1099.5" y="170" as="targetPoint" />
          </mxGeometry>
        </mxCell>
        <mxCell id="bJA0hyxQSDtkD8YtruUl-32" value="Already cleaned?" style="rhombus;whiteSpace=wrap;html=1;shadow=0;fontFamily=Helvetica;fontSize=12;align=center;strokeWidth=1;spacing=6;spacingTop=-4;" vertex="1" parent="WIyWlLk6GJQsqaUBKTNV-1">
          <mxGeometry x="1050" y="170" width="100" height="80" as="geometry" />
        </mxCell>
        <mxCell id="bJA0hyxQSDtkD8YtruUl-33" value="Yes" style="edgeStyle=orthogonalEdgeStyle;rounded=0;html=1;jettySize=auto;orthogonalLoop=1;fontSize=11;endArrow=block;endFill=0;endSize=8;strokeWidth=1;shadow=0;labelBackgroundColor=none;" edge="1" parent="WIyWlLk6GJQsqaUBKTNV-1">
          <mxGeometry y="10" relative="1" as="geometry">
            <mxPoint as="offset" />
            <mxPoint x="1150" y="209.5" as="sourcePoint" />
            <mxPoint x="1200" y="209.5" as="targetPoint" />
          </mxGeometry>
        </mxCell>
        <mxCell id="bJA0hyxQSDtkD8YtruUl-34" value="No" style="rounded=0;html=1;jettySize=auto;orthogonalLoop=1;fontSize=11;endArrow=block;endFill=0;endSize=8;strokeWidth=1;shadow=0;labelBackgroundColor=none;edgeStyle=orthogonalEdgeStyle;" edge="1" parent="WIyWlLk6GJQsqaUBKTNV-1">
          <mxGeometry x="0.3333" y="20" relative="1" as="geometry">
            <mxPoint as="offset" />
            <mxPoint x="1099.5" y="250" as="sourcePoint" />
            <mxPoint x="1099.5" y="310" as="targetPoint" />
          </mxGeometry>
        </mxCell>
        <mxCell id="bJA0hyxQSDtkD8YtruUl-35" value="Run template clean" style="rounded=1;whiteSpace=wrap;html=1;fontSize=12;glass=0;strokeWidth=1;shadow=0;" vertex="1" parent="WIyWlLk6GJQsqaUBKTNV-1">
          <mxGeometry x="1040" y="310" width="120" height="40" as="geometry" />
        </mxCell>
        <mxCell id="bJA0hyxQSDtkD8YtruUl-36" value="Existing template?" style="rhombus;whiteSpace=wrap;html=1;shadow=0;fontFamily=Helvetica;fontSize=12;align=center;strokeWidth=1;spacing=6;spacingTop=-4;" vertex="1" parent="WIyWlLk6GJQsqaUBKTNV-1">
          <mxGeometry x="1050" y="410" width="100" height="80" as="geometry" />
        </mxCell>
        <mxCell id="bJA0hyxQSDtkD8YtruUl-38" value="Yes" style="edgeStyle=orthogonalEdgeStyle;rounded=0;html=1;jettySize=auto;orthogonalLoop=1;fontSize=11;endArrow=block;endFill=0;endSize=8;strokeWidth=1;shadow=0;labelBackgroundColor=none;" edge="1" parent="WIyWlLk6GJQsqaUBKTNV-1">
          <mxGeometry y="10" relative="1" as="geometry">
            <mxPoint as="offset" />
            <mxPoint x="1150" y="449.5" as="sourcePoint" />
            <mxPoint x="1200" y="449.5" as="targetPoint" />
          </mxGeometry>
        </mxCell>
        <mxCell id="bJA0hyxQSDtkD8YtruUl-39" value="No" style="rounded=0;html=1;jettySize=auto;orthogonalLoop=1;fontSize=11;endArrow=block;endFill=0;endSize=8;strokeWidth=1;shadow=0;labelBackgroundColor=none;edgeStyle=orthogonalEdgeStyle;" edge="1" parent="WIyWlLk6GJQsqaUBKTNV-1">
          <mxGeometry x="0.3333" y="20" relative="1" as="geometry">
            <mxPoint as="offset" />
            <mxPoint x="1099.5" y="490" as="sourcePoint" />
            <mxPoint x="1099.5" y="550" as="targetPoint" />
          </mxGeometry>
        </mxCell>
        <mxCell id="bJA0hyxQSDtkD8YtruUl-40" value="Run numerical clean" style="rounded=1;whiteSpace=wrap;html=1;fontSize=12;glass=0;strokeWidth=1;shadow=0;" vertex="1" parent="WIyWlLk6GJQsqaUBKTNV-1">
          <mxGeometry x="1200" y="430" width="130" height="40" as="geometry" />
        </mxCell>
        <mxCell id="bJA0hyxQSDtkD8YtruUl-41" value="Update cleaning_status with error" style="rounded=1;whiteSpace=wrap;html=1;fontSize=12;glass=0;strokeWidth=1;shadow=0;" vertex="1" parent="WIyWlLk6GJQsqaUBKTNV-1">
          <mxGeometry x="1040" y="550" width="120" height="50" as="geometry" />
        </mxCell>
        <mxCell id="bJA0hyxQSDtkD8YtruUl-42" value="Numerically&lt;div&gt;clean?&lt;/div&gt;" style="rhombus;whiteSpace=wrap;html=1;shadow=0;fontFamily=Helvetica;fontSize=12;align=center;strokeWidth=1;spacing=6;spacingTop=-4;" vertex="1" parent="WIyWlLk6GJQsqaUBKTNV-1">
          <mxGeometry x="1385" y="410" width="100" height="80" as="geometry" />
        </mxCell>
        <mxCell id="bJA0hyxQSDtkD8YtruUl-44" value="" style="rounded=0;html=1;jettySize=auto;orthogonalLoop=1;fontSize=11;endArrow=block;endFill=0;endSize=8;strokeWidth=1;shadow=0;labelBackgroundColor=none;edgeStyle=orthogonalEdgeStyle;entryX=0.5;entryY=0;entryDx=0;entryDy=0;" edge="1" parent="WIyWlLk6GJQsqaUBKTNV-1" target="bJA0hyxQSDtkD8YtruUl-36">
          <mxGeometry relative="1" as="geometry">
            <mxPoint x="1099.5" y="350" as="sourcePoint" />
            <mxPoint x="1099.5" y="400" as="targetPoint" />
          </mxGeometry>
        </mxCell>
        <mxCell id="bJA0hyxQSDtkD8YtruUl-45" value="" style="rounded=0;html=1;jettySize=auto;orthogonalLoop=1;fontSize=11;endArrow=block;endFill=0;endSize=8;strokeWidth=1;shadow=0;labelBackgroundColor=none;edgeStyle=orthogonalEdgeStyle;entryX=0.5;entryY=0;entryDx=0;entryDy=0;" edge="1" parent="WIyWlLk6GJQsqaUBKTNV-1">
          <mxGeometry relative="1" as="geometry">
            <mxPoint x="679.5" y="350" as="sourcePoint" />
            <mxPoint x="680" y="410" as="targetPoint" />
          </mxGeometry>
        </mxCell>
        <mxCell id="bJA0hyxQSDtkD8YtruUl-46" value="" style="rounded=0;html=1;jettySize=auto;orthogonalLoop=1;fontSize=11;endArrow=block;endFill=0;endSize=8;strokeWidth=1;shadow=0;labelBackgroundColor=none;edgeStyle=orthogonalEdgeStyle;exitX=1;exitY=0.5;exitDx=0;exitDy=0;entryX=0;entryY=0.5;entryDx=0;entryDy=0;" edge="1" parent="WIyWlLk6GJQsqaUBKTNV-1" source="bJA0hyxQSDtkD8YtruUl-40" target="bJA0hyxQSDtkD8YtruUl-42">
          <mxGeometry relative="1" as="geometry">
            <mxPoint x="1370" y="360" as="sourcePoint" />
            <mxPoint x="1380" y="450" as="targetPoint" />
          </mxGeometry>
        </mxCell>
        <mxCell id="bJA0hyxQSDtkD8YtruUl-47" value="Yes" style="edgeStyle=orthogonalEdgeStyle;rounded=0;html=1;jettySize=auto;orthogonalLoop=1;fontSize=11;endArrow=block;endFill=0;endSize=8;strokeWidth=1;shadow=0;labelBackgroundColor=none;" edge="1" parent="WIyWlLk6GJQsqaUBKTNV-1">
          <mxGeometry y="10" relative="1" as="geometry">
            <mxPoint as="offset" />
            <mxPoint x="1485" y="449.5" as="sourcePoint" />
            <mxPoint x="1535" y="449.5" as="targetPoint" />
          </mxGeometry>
        </mxCell>
        <mxCell id="bJA0hyxQSDtkD8YtruUl-48" value="No" style="rounded=0;html=1;jettySize=auto;orthogonalLoop=1;fontSize=11;endArrow=block;endFill=0;endSize=8;strokeWidth=1;shadow=0;labelBackgroundColor=none;edgeStyle=orthogonalEdgeStyle;" edge="1" parent="WIyWlLk6GJQsqaUBKTNV-1">
          <mxGeometry x="0.3333" y="20" relative="1" as="geometry">
            <mxPoint as="offset" />
            <mxPoint x="1434.5" y="490" as="sourcePoint" />
            <mxPoint x="1434.5" y="550" as="targetPoint" />
          </mxGeometry>
        </mxCell>
        <mxCell id="bJA0hyxQSDtkD8YtruUl-49" value="Update cleaning_status with error" style="rounded=1;whiteSpace=wrap;html=1;fontSize=12;glass=0;strokeWidth=1;shadow=0;" vertex="1" parent="WIyWlLk6GJQsqaUBKTNV-1">
          <mxGeometry x="1370" y="550" width="130" height="40" as="geometry" />
        </mxCell>
        <mxCell id="bJA0hyxQSDtkD8YtruUl-50" value="Dump into silver lake" style="rounded=1;whiteSpace=wrap;html=1;fontSize=12;glass=0;strokeWidth=1;shadow=0;" vertex="1" parent="WIyWlLk6GJQsqaUBKTNV-1">
          <mxGeometry x="1535" y="430" width="130" height="40" as="geometry" />
        </mxCell>
        <mxCell id="bJA0hyxQSDtkD8YtruUl-52" value="" style="rounded=0;html=1;jettySize=auto;orthogonalLoop=1;fontSize=11;endArrow=block;endFill=0;endSize=8;strokeWidth=1;shadow=0;labelBackgroundColor=none;edgeStyle=orthogonalEdgeStyle;exitX=1;exitY=0.5;exitDx=0;exitDy=0;" edge="1" parent="WIyWlLk6GJQsqaUBKTNV-1">
          <mxGeometry relative="1" as="geometry">
            <mxPoint x="1665" y="449.5" as="sourcePoint" />
            <mxPoint x="1705" y="450" as="targetPoint" />
          </mxGeometry>
        </mxCell>
        <mxCell id="bJA0hyxQSDtkD8YtruUl-53" value="Update cleaning_status with success" style="rounded=1;whiteSpace=wrap;html=1;fontSize=12;glass=0;strokeWidth=1;shadow=0;" vertex="1" parent="WIyWlLk6GJQsqaUBKTNV-1">
          <mxGeometry x="1705" y="430" width="130" height="40" as="geometry" />
        </mxCell>
        <mxCell id="bJA0hyxQSDtkD8YtruUl-54" value="" style="rounded=0;html=1;jettySize=auto;orthogonalLoop=1;fontSize=11;endArrow=block;endFill=0;endSize=8;strokeWidth=1;shadow=0;labelBackgroundColor=none;edgeStyle=orthogonalEdgeStyle;" edge="1" parent="WIyWlLk6GJQsqaUBKTNV-1" source="bJA0hyxQSDtkD8YtruUl-55">
          <mxGeometry relative="1" as="geometry">
            <mxPoint x="2164.8599999999997" y="160" as="targetPoint" />
          </mxGeometry>
        </mxCell>
        <mxCell id="bJA0hyxQSDtkD8YtruUl-55" value="Read all cleaning_status from CosmosDB" style="rounded=1;whiteSpace=wrap;html=1;fontSize=12;glass=0;strokeWidth=1;shadow=0;" vertex="1" parent="WIyWlLk6GJQsqaUBKTNV-1">
          <mxGeometry x="2104.8599999999997" y="70" width="120" height="40" as="geometry" />
        </mxCell>
        <mxCell id="bJA0hyxQSDtkD8YtruUl-56" value="has &lt;br&gt;item_code?" style="rhombus;whiteSpace=wrap;html=1;shadow=0;fontFamily=Helvetica;fontSize=12;align=center;strokeWidth=1;spacing=6;spacingTop=-4;" vertex="1" parent="WIyWlLk6GJQsqaUBKTNV-1">
          <mxGeometry x="2114.8599999999997" y="160" width="100" height="80" as="geometry" />
        </mxCell>
        <mxCell id="bJA0hyxQSDtkD8YtruUl-57" value="Yes" style="edgeStyle=orthogonalEdgeStyle;rounded=0;html=1;jettySize=auto;orthogonalLoop=1;fontSize=11;endArrow=block;endFill=0;endSize=8;strokeWidth=1;shadow=0;labelBackgroundColor=none;" edge="1" parent="WIyWlLk6GJQsqaUBKTNV-1">
          <mxGeometry y="10" relative="1" as="geometry">
            <mxPoint as="offset" />
            <mxPoint x="2214.8599999999997" y="199.5" as="sourcePoint" />
            <mxPoint x="2264.8599999999997" y="199.5" as="targetPoint" />
          </mxGeometry>
        </mxCell>
        <mxCell id="bJA0hyxQSDtkD8YtruUl-58" value="No" style="rounded=0;html=1;jettySize=auto;orthogonalLoop=1;fontSize=11;endArrow=block;endFill=0;endSize=8;strokeWidth=1;shadow=0;labelBackgroundColor=none;edgeStyle=orthogonalEdgeStyle;" edge="1" parent="WIyWlLk6GJQsqaUBKTNV-1">
          <mxGeometry x="0.3333" y="20" relative="1" as="geometry">
            <mxPoint as="offset" />
            <mxPoint x="2164.3599999999997" y="240" as="sourcePoint" />
            <mxPoint x="2164.3599999999997" y="300" as="targetPoint" />
          </mxGeometry>
        </mxCell>
        <mxCell id="bJA0hyxQSDtkD8YtruUl-59" value="Item Code Match&lt;br&gt;Script" style="rounded=1;whiteSpace=wrap;html=1;fontSize=12;glass=0;strokeWidth=1;shadow=0;" vertex="1" parent="WIyWlLk6GJQsqaUBKTNV-1">
          <mxGeometry x="2104.8599999999997" y="300" width="120" height="40" as="geometry" />
        </mxCell>
        <mxCell id="bJA0hyxQSDtkD8YtruUl-60" value="Item Code Match?" style="rhombus;whiteSpace=wrap;html=1;shadow=0;fontFamily=Helvetica;fontSize=12;align=center;strokeWidth=1;spacing=6;spacingTop=-4;" vertex="1" parent="WIyWlLk6GJQsqaUBKTNV-1">
          <mxGeometry x="2114.8599999999997" y="400" width="100" height="80" as="geometry" />
        </mxCell>
        <mxCell id="bJA0hyxQSDtkD8YtruUl-61" value="Yes" style="edgeStyle=orthogonalEdgeStyle;rounded=0;html=1;jettySize=auto;orthogonalLoop=1;fontSize=11;endArrow=block;endFill=0;endSize=8;strokeWidth=1;shadow=0;labelBackgroundColor=none;" edge="1" parent="WIyWlLk6GJQsqaUBKTNV-1">
          <mxGeometry y="10" relative="1" as="geometry">
            <mxPoint as="offset" />
            <mxPoint x="2214.8599999999997" y="439.5" as="sourcePoint" />
            <mxPoint x="2264.8599999999997" y="439.5" as="targetPoint" />
          </mxGeometry>
        </mxCell>
        <mxCell id="bJA0hyxQSDtkD8YtruUl-62" value="No" style="rounded=0;html=1;jettySize=auto;orthogonalLoop=1;fontSize=11;endArrow=block;endFill=0;endSize=8;strokeWidth=1;shadow=0;labelBackgroundColor=none;edgeStyle=orthogonalEdgeStyle;" edge="1" parent="WIyWlLk6GJQsqaUBKTNV-1">
          <mxGeometry x="0.3333" y="20" relative="1" as="geometry">
            <mxPoint as="offset" />
            <mxPoint x="2164.3599999999997" y="480" as="sourcePoint" />
            <mxPoint x="2164.3599999999997" y="540" as="targetPoint" />
          </mxGeometry>
        </mxCell>
        <mxCell id="bJA0hyxQSDtkD8YtruUl-63" value="fuzzy match item_codes" style="rounded=1;whiteSpace=wrap;html=1;fontSize=12;glass=0;strokeWidth=1;shadow=0;" vertex="1" parent="WIyWlLk6GJQsqaUBKTNV-1">
          <mxGeometry x="2099.8599999999997" y="540" width="130" height="60" as="geometry" />
        </mxCell>
        <mxCell id="bJA0hyxQSDtkD8YtruUl-64" value="backfill data via Item Code" style="rounded=1;whiteSpace=wrap;html=1;fontSize=12;glass=0;strokeWidth=1;shadow=0;" vertex="1" parent="WIyWlLk6GJQsqaUBKTNV-1">
          <mxGeometry x="2264.8599999999997" y="410" width="140" height="60" as="geometry" />
        </mxCell>
        <mxCell id="bJA0hyxQSDtkD8YtruUl-65" value="Good to go" style="rounded=1;whiteSpace=wrap;html=1;fontSize=12;glass=0;strokeWidth=1;shadow=0;" vertex="1" parent="WIyWlLk6GJQsqaUBKTNV-1">
          <mxGeometry x="2264.8599999999997" y="180" width="100" height="40" as="geometry" />
        </mxCell>
        <mxCell id="bJA0hyxQSDtkD8YtruUl-66" value="" style="rounded=0;html=1;jettySize=auto;orthogonalLoop=1;fontSize=11;endArrow=block;endFill=0;endSize=8;strokeWidth=1;shadow=0;labelBackgroundColor=none;edgeStyle=orthogonalEdgeStyle;entryX=0.5;entryY=0;entryDx=0;entryDy=0;" edge="1" parent="WIyWlLk6GJQsqaUBKTNV-1">
          <mxGeometry relative="1" as="geometry">
            <mxPoint x="2164.3599999999997" y="340" as="sourcePoint" />
            <mxPoint x="2164.8599999999997" y="400" as="targetPoint" />
          </mxGeometry>
        </mxCell>
        <mxCell id="bJA0hyxQSDtkD8YtruUl-67" value="" style="rounded=0;html=1;jettySize=auto;orthogonalLoop=1;fontSize=11;endArrow=block;endFill=0;endSize=8;strokeWidth=1;shadow=0;labelBackgroundColor=none;edgeStyle=orthogonalEdgeStyle;entryX=0.5;entryY=0;entryDx=0;entryDy=0;" edge="1" parent="WIyWlLk6GJQsqaUBKTNV-1">
          <mxGeometry relative="1" as="geometry">
            <mxPoint x="2164.3599999999997" y="600" as="sourcePoint" />
            <mxPoint x="2164.8599999999997" y="660" as="targetPoint" />
          </mxGeometry>
        </mxCell>
        <mxCell id="bJA0hyxQSDtkD8YtruUl-70" style="edgeStyle=orthogonalEdgeStyle;rounded=0;orthogonalLoop=1;jettySize=auto;html=1;exitX=0;exitY=0.5;exitDx=0;exitDy=0;entryX=0;entryY=0.5;entryDx=0;entryDy=0;" edge="1" parent="WIyWlLk6GJQsqaUBKTNV-1" source="bJA0hyxQSDtkD8YtruUl-68" target="bJA0hyxQSDtkD8YtruUl-60">
          <mxGeometry relative="1" as="geometry">
            <Array as="points">
              <mxPoint x="2019.86" y="690" />
              <mxPoint x="2019.86" y="440" />
            </Array>
          </mxGeometry>
        </mxCell>
        <mxCell id="bJA0hyxQSDtkD8YtruUl-68" value="upload to cosmosDB&lt;div&gt;via pkType: item_code_match&lt;/div&gt;&lt;div&gt;item_code_match = False&lt;/div&gt;" style="rounded=1;whiteSpace=wrap;html=1;fontSize=12;glass=0;strokeWidth=1;shadow=0;" vertex="1" parent="WIyWlLk6GJQsqaUBKTNV-1">
          <mxGeometry x="2099.8599999999997" y="660" width="160" height="100" as="geometry" />
        </mxCell>
      </root>
    </mxGraphModel>
  </diagram>
</mxfile>
